<svg xmlns="http://www.w3.org/2000/svg" xmlns:svg="http://www.w3.org/2000/svg" xmlns:xlink="http://www.w3.org/1999/xlink" id="svg1" width="128" height="128" x="0" y="0" _SVGFile__filename="oldscale/actions/aobottom.svg" version="1.0" viewBox="0 0 128 128"><defs id="defs23"><filter id="filter5692"><feGaussianBlur id="feGaussianBlur5694" stdDeviation="6.9"/></filter><linearGradient id="linearGradient5724" x1="218.57" x2="218.57" y1="604.53" y2="762.36" gradientTransform="matrix(0.75893,0,0,0.75893,55.104,127.65)" gradientUnits="userSpaceOnUse"><stop style="stop-color:#dcdcdc" id="stop5578" offset="0"/><stop style="stop-color:#fff" id="stop5580" offset="1"/></linearGradient><linearGradient id="linearGradient5726" x1="216.43" x2="216.43" y1="426.66" y2="359.35" gradientTransform="matrix(0.75893,0,0,0.75893,55.104,127.65)" gradientUnits="userSpaceOnUse"><stop style="stop-color:#000" id="stop5568" offset="0"/><stop style="stop-color:#d00000" id="stop5574" offset=".25"/><stop style="stop-color:#fff" id="stop5570" offset="1"/></linearGradient><linearGradient id="linearGradient5728" x1="239.47" x2="239.47" y1="517.54" y2="523.15" gradientUnits="userSpaceOnUse"><stop style="stop-color:#000" id="stop5698" offset="0"/><stop style="stop-color:#000;stop-opacity:0" id="stop5700" offset="1"/></linearGradient><linearGradient id="linearGradient3471" x1="218.57" x2="218.57" y1="604.53" y2="762.36" gradientTransform="matrix(0.75893,0,0,0.75893,55.104,127.65)" gradientUnits="userSpaceOnUse" xlink:href="#linearGradient5724"/><linearGradient id="linearGradient3473" x1="216.43" x2="216.43" y1="426.66" y2="359.35" gradientTransform="matrix(0.75893,0,0,0.75893,55.104,127.65)" gradientUnits="userSpaceOnUse" xlink:href="#linearGradient5726"/><linearGradient id="linearGradient3475" x1="239.47" x2="239.47" y1="517.54" y2="523.15" gradientTransform="matrix(-15.565,0,0,-15.565,3965.8209,8547.5763)" gradientUnits="userSpaceOnUse" xlink:href="#linearGradient5728"/><linearGradient id="linearGradient3477" x1="218.57" x2="218.57" y1="604.53" y2="762.36" gradientTransform="matrix(0.75893,0,0,0.75893,55.104,127.65)" gradientUnits="userSpaceOnUse" xlink:href="#linearGradient5724"/><linearGradient id="linearGradient3479" x1="216.43" x2="216.43" y1="426.66" y2="359.35" gradientTransform="matrix(0.75893,0,0,0.75893,55.104,127.65)" gradientUnits="userSpaceOnUse" xlink:href="#linearGradient5726"/><linearGradient id="linearGradient3481" x1="239.47" x2="239.47" y1="517.54" y2="523.15" gradientUnits="userSpaceOnUse" xlink:href="#linearGradient5728"/></defs><g id="g3387" transform="matrix(1.1739486,0,0,1.1739486,0.22800288,-0.76641279)"><g id="g2079" transform="matrix(1.6801236,0,0,1.6801236,-13.942418,-2.8045918)"><path style="color:#000;display:block;fill:none;stroke:#fff;stroke-width:7.13430023;stroke-linecap:round;stroke-linejoin:round" id="path2077" d="m 11.75,54.375 0,-48.75 27.688,0 8.812,8.813 0,39.937 -36.5,0 z"/><path style="color:#000;display:block;fill:#fff;stroke:#000;stroke-width:2.37809992;stroke-linecap:round;stroke-linejoin:round" id="rect1089" d="m 11.75,54.375 0,-48.75 27.688,0 8.812,8.813 0,39.937 -36.5,0 z"/><path style="color:#000;display:block;fill:#000;stroke:#000;stroke-width:2.37809992;stroke-linecap:round;stroke-linejoin:round" id="path1713" d="m 39.437,14.438 0,-8.813 8.813,8.813 -8.813,0 z"/></g><path style="fill:none;stroke:#000;stroke-width:3.99534774;stroke-linecap:round;stroke-linejoin:round" id="path1326" d="m 15.766348,17.121965 13.879839,0"/><path style="fill:none;stroke:#000;stroke-width:3.99534774;stroke-linecap:round;stroke-linejoin:round" id="path1334" d="m 47.887346,75.270252 9.264413,0"/><g style="stroke:#000" id="g1344" transform="matrix(0.63249551,0,0,1.5981391,4.9805074,-0.34729284)"><path style="fill:none;stroke:#000;stroke-width:3.97390008;stroke-linecap:round;stroke-linejoin:round" id="path1346" d="m 17.052,22.068 28.899,0"/><path style="fill:none;stroke:#000;stroke-width:3.97390008;stroke-linecap:round;stroke-linejoin:round" id="path1348" d="m 17.052,27.13 20.826,0"/><path style="fill:none;stroke:#000;stroke-width:3.97390008;stroke-linecap:round;stroke-linejoin:round" id="path1350" d="m 17.052,32.192 33.477,0"/><path style="fill:none;stroke:#000;stroke-width:3.97390008;stroke-linecap:round;stroke-linejoin:round" id="path1352" d="m 17.052,42.316 17.797,0"/><path style="fill:none;stroke:#000;stroke-width:3.97390008;stroke-linecap:round;stroke-linejoin:round" id="path1354" d="m 17.052,37.254 30.95,0"/></g><path style="fill:none;stroke:#000;stroke-width:3.99534774;stroke-linecap:round;stroke-linejoin:round" id="path2116" d="m 47.887346,67.279561 9.264413,0"/><path style="fill:none;stroke:#000;stroke-width:3.99534774;stroke-linecap:round;stroke-linejoin:round" id="path2118" d="m 47.887346,59.288865 9.264413,0"/><path style="fill:none;stroke:#000;stroke-width:3.99534774;stroke-linecap:round;stroke-linejoin:round" id="path2120" d="m 47.887346,51.29817 9.264413,0"/><path style="fill:none;stroke:#000;stroke-width:3.99534774;stroke-linecap:round;stroke-linejoin:round" id="path2122" d="m 47.887346,43.307474 9.264413,0"/><path style="fill:none;stroke:#000;stroke-width:3.99534774;stroke-linecap:round;stroke-linejoin:round" id="path2124" d="m 47.887346,35.316779 9.264413,0"/></g><metadata id="metadata21"/><g id="layer1" transform="matrix(0.08621647,0,0,0.08621647,39.9768,64.402622)"><g id="g5738"><g id="g5710" transform="matrix(1.3387,0,0,1.3387,-84.239,-332.46)"><rect style="fill:#696969;filter:url(#filter5692)" id="rect5642" width="197.14" height="197.14" x="230.72" y="508.78" rx="19.53" ry="19.53" transform="matrix(1.7971,0,0,1.7971,-262.48,-484.12)"/><g id="g5616" transform="matrix(1.4588,0,0,1.4588,-4.1661,-165.08)"><rect style="fill:url(#linearGradient3477)" id="rect4588" width="242.86" height="242.86" x="107.15" y="408.06" rx="24.058" ry="24.058"/><path style="fill:url(#linearGradient3479)" id="rect4590" d="m 131.2,408.06 c -13.33,0 -24.05,10.75 -24.05,24.07 l 0,12.81 242.86,0 0,-12.81 c 0,-13.32 -10.75,-24.07 -24.08,-24.07 l -194.73,0 z"/><path style="fill:url(#linearGradient3481)" id="flowRoot5600" d="m 237.03,518.79 0,-1.61 c 0.36,0.17 0.7,0.29 1.03,0.38 0.33,0.08 0.65,0.12 0.97,0.12 0.68,0 1.2,-0.19 1.57,-0.56 0.38,-0.37 0.6,-0.93 0.67,-1.66 -0.27,0.2 -0.55,0.34 -0.85,0.44 -0.3,0.1 -0.63,0.15 -0.98,0.15 -0.9,0 -1.62,-0.26 -2.17,-0.79 -0.55,-0.52 -0.82,-1.2 -0.82,-2.06 0,-0.94 0.3,-1.69 0.92,-2.26 0.61,-0.56 1.43,-0.85 2.45,-0.85 1.14,0 2.03,0.39 2.65,1.16 0.63,0.77 0.94,1.85 0.94,3.26 0,1.45 -0.37,2.58 -1.1,3.41 -0.73,0.82 -1.73,1.24 -3,1.24 -0.41,0 -0.8,-0.03 -1.18,-0.09 -0.37,-0.06 -0.74,-0.15 -1.1,-0.28 z m 2.78,-4.21 c 0.4,0 0.69,-0.13 0.89,-0.38 0.2,-0.26 0.3,-0.64 0.3,-1.15 0,-0.51 -0.1,-0.89 -0.3,-1.15 -0.2,-0.26 -0.49,-0.39 -0.89,-0.39 -0.39,0 -0.69,0.13 -0.89,0.39 -0.2,0.26 -0.3,0.64 -0.3,1.15 0,0.51 0.1,0.89 0.3,1.15 0.2,0.25 0.5,0.38 0.89,0.38 z" transform="matrix(15.565,0,0,15.565,-3503.2,-7472.7)"/></g></g></g></g><g id="g3455" transform="matrix(0.08621647,0,0,0.08621647,71.208288,36.93708)"><g id="g3457" transform="translate(46.394848,69.592272)"><g id="g3459" transform="matrix(1.3387,0,0,1.3387,-84.239,-332.46)"><rect id="rect3461" width="197.14" height="197.14" x="230.72" y="508.78" rx="19.53" ry="19.53" transform="matrix(1.7971,0,0,1.7971,-262.48,-484.12)" style="fill:#696969;filter:url(#filter5692)"/><g id="g3463" transform="matrix(1.4588,0,0,1.4588,-4.1661,-165.08)"><rect id="rect3465" width="242.86" height="242.86" x="107.15" y="408.06" rx="24.058" ry="24.058" style="fill:url(#linearGradient3471)"/><path id="path3467" d="m 131.2,408.06 c -13.33,0 -24.05,10.75 -24.05,24.07 l 0,12.81 242.86,0 0,-12.81 c 0,-13.32 -10.75,-24.07 -24.08,-24.07 l -194.73,0 z" style="fill:url(#linearGradient3473)"/><path id="path3469" d="m 276.44895,472.6099 0,25.05965 c -5.6034,-2.64605 -10.8955,-4.51385 -16.03195,-5.9147 -5.13645,-1.2452 -10.11725,-1.8678 -15.09805,-1.8678 -10.5842,0 -18.678,2.95735 -24.43705,8.7164 -5.9147,5.75905 -9.339,14.47545 -10.42855,25.8379 4.20255,-3.113 8.56075,-5.2921 13.23025,-6.8486 4.6695,-1.5565 9.80595,-2.33475 15.2537,-2.33475 14.0085,0 25.2153,4.0469 33.77605,12.29635 8.56075,8.0938 12.7633,18.678 12.7633,32.0639 0,14.6311 -4.6695,26.30485 -14.3198,35.1769 -9.49465,8.7164 -22.25795,13.23025 -38.13425,13.23025 -17.7441,0 -31.59695,-6.07035 -41.24725,-18.0554 -9.80595,-11.98505 -14.6311,-28.79525 -14.6311,-50.7419 0,-22.56925 5.75905,-40.1577 17.1215,-53.07665 11.36245,-12.7633 26.92745,-19.3006 46.695,-19.3006 6.38165,0 12.452,0.46695 18.3667,1.40085 5.75905,0.9339 11.5181,2.33475 17.1215,4.3582 z m -43.2707,65.52865 c -6.226,0 -10.73985,2.02345 -13.85285,5.9147 -3.113,4.0469 -4.6695,9.9616 -4.6695,17.89975 0,7.93815 1.5565,13.85285 4.6695,17.89975 3.113,4.0469 7.62685,6.07035 13.85285,6.07035 6.07035,0 10.73985,-2.02345 13.85285,-6.07035 3.113,-4.0469 4.6695,-9.9616 4.6695,-17.89975 0,-7.93815 -1.5565,-13.85285 -4.6695,-17.89975 -3.113,-3.89125 -7.7825,-5.9147 -13.85285,-5.9147 z" style="fill:url(#linearGradient3475)"/></g></g></g></g></svg>